<svg width="681" height="758" viewBox="0 0 681 758" fill="none" xmlns="http://www.w3.org/2000/svg">
<path d="M156.32 707.68C154.869 707.68 154.144 706.827 154.144 705.12C154.144 702.389 155.637 697.611 158.624 690.784C161.611 683.872 166.091 674.997 172.064 664.16L196.384 620.384H193.952C174.069 620.384 161.099 622.816 155.04 627.68C152.565 629.643 150.859 632.459 149.92 636.128C149.835 637.408 149.28 638.048 148.256 638.048C146.549 638.048 145.696 637.28 145.696 635.744C145.696 631.477 148.043 627.637 152.736 624.224C159.819 618.933 173.088 616.288 192.544 616.288C198.176 616.288 203.851 616.416 209.568 616.672L222.88 617.568C225.611 617.739 228.085 617.909 230.304 618.08C232.523 618.165 234.485 618.208 236.192 618.208C237.557 618.208 238.24 618.891 238.24 620.256C238.24 621.621 237.557 622.304 236.192 622.304C233.205 622.304 228.768 622.048 222.88 621.536C218.613 621.109 215.285 620.853 212.896 620.768C210.507 620.683 208.331 620.64 206.368 620.64C204.576 620.64 203.253 620.64 202.4 620.64C201.547 620.555 200.949 620.512 200.608 620.512C199.584 623.157 196.981 628.235 192.8 635.744L179.872 658.784C172.619 671.755 167.2 682.08 163.616 689.76C160.117 697.44 158.368 702.389 158.368 704.608V705.248C158.368 706.869 157.685 707.68 156.32 707.68ZM229.95 649.568C228.499 649.568 227.774 648.843 227.774 647.392C227.774 646.965 228.073 646.197 228.67 645.088C229.267 643.893 229.95 642.699 230.718 641.504C231.486 640.309 232.083 639.499 232.51 639.072C233.961 637.451 235.07 636.427 235.838 636C236.691 635.573 237.459 635.36 238.142 635.36C239.934 635.36 240.83 636.171 240.83 637.792C240.83 638.389 240.446 639.115 239.678 639.968C238.995 640.736 238.185 641.461 237.246 642.144C235.881 642.997 235.027 643.68 234.686 644.192L231.87 648.16C231.785 648.501 231.571 648.843 231.23 649.184C230.974 649.44 230.547 649.568 229.95 649.568ZM208.19 701.408C205.801 701.408 204.051 700.939 202.942 700C201.918 699.061 201.406 697.653 201.406 695.776C201.406 693.984 201.961 691.552 203.07 688.48C204.179 685.323 205.587 681.952 207.294 678.368C209.086 674.784 210.963 671.371 212.926 668.128C214.889 664.885 216.766 662.24 218.558 660.192C220.435 658.059 221.929 656.992 223.038 656.992C224.574 656.992 225.342 657.675 225.342 659.04C225.342 659.893 224.617 661.515 223.166 663.904C221.715 666.293 220.137 668.768 218.43 671.328C217.747 672.267 216.809 673.547 215.614 675.168C214.419 676.789 213.267 678.325 212.158 679.776C211.049 681.141 210.323 682.08 209.982 682.592C209.129 683.872 208.233 685.963 207.294 688.864C206.27 691.765 205.758 693.984 205.758 695.52C205.758 696.203 205.886 696.715 206.142 697.056C206.483 697.397 207.209 697.568 208.318 697.568C210.451 697.568 212.841 696.885 215.486 695.52C218.131 694.155 220.819 692.448 223.55 690.4C226.281 688.267 228.841 686.091 231.23 683.872C233.705 681.653 235.795 679.733 237.502 678.112C237.843 677.771 238.355 677.6 239.038 677.6C240.318 677.6 240.958 678.112 240.958 679.136C240.958 680.075 240.361 681.141 239.166 682.336C236.862 684.64 234.729 686.688 232.766 688.48C230.803 690.272 228.926 691.851 227.134 693.216C224.318 695.264 221.203 697.141 217.79 698.848C214.377 700.555 211.177 701.408 208.19 701.408ZM229.328 704.352C227.877 704.352 227.152 703.669 227.152 702.304C227.152 702.219 227.664 701.152 228.688 699.104C229.712 697.056 231.163 694.027 233.04 690.016L239.568 676.32C242.213 670.773 244.091 666.379 245.2 663.136C246.395 659.893 246.992 657.803 246.992 656.864C246.992 655.499 247.675 654.816 249.04 654.816C250.405 654.816 251.088 655.499 251.088 656.864C251.088 657.973 250.704 659.723 249.936 662.112C249.253 664.416 248.101 667.403 246.48 671.072L239.952 685.92C257.787 663.392 271.227 652.128 280.272 652.128C281.979 652.128 283.301 652.853 284.24 654.304C285.179 655.669 285.648 657.205 285.648 658.912C285.648 663.008 282.704 670.133 276.816 680.288C281.339 675.68 285.904 671.072 290.512 666.464C295.205 661.771 299.899 657.163 304.592 652.64C305.787 651.531 306.768 650.976 307.536 650.976C308.56 650.976 309.413 651.488 310.096 652.512C310.779 653.451 311.12 654.475 311.12 655.584C311.12 656.437 310.736 657.504 309.968 658.784C308.859 660.661 307.835 662.923 306.896 665.568C305.957 668.128 304.891 671.029 303.696 674.272C302.331 677.941 301.349 681.141 300.752 683.872C300.155 686.603 299.856 688.821 299.856 690.528C299.856 692.661 300.368 694.24 301.392 695.264C302.416 696.203 303.44 696.672 304.464 696.672C306.256 696.672 308.219 696.203 310.352 695.264C312.485 694.325 314.235 693.387 315.6 692.448C318.331 690.656 321.189 688.437 324.176 685.792C327.163 683.061 330.021 680.331 332.752 677.6C333.093 677.259 333.605 677.088 334.288 677.088C335.568 677.088 336.208 677.6 336.208 678.624C336.208 679.563 335.611 680.629 334.416 681.824C331.003 685.237 327.931 688.181 325.2 690.656C322.469 693.045 319.867 695.008 317.392 696.544C315.771 697.483 313.808 698.464 311.504 699.488C309.2 700.512 306.725 701.024 304.08 701.024C301.605 701.024 299.515 700.256 297.808 698.72C296.187 697.184 295.376 693.899 295.376 688.864C295.376 686.901 295.717 684.597 296.4 681.952C297.083 679.221 298.107 676.192 299.472 672.864L306.256 656.736L287.952 675.168C285.819 677.301 284.069 679.093 282.704 680.544C281.339 681.995 280.229 683.189 279.376 684.128C277.755 685.835 276.304 687.499 275.024 689.12C273.829 690.741 272.805 692.149 271.952 693.344C271.355 694.283 270.672 694.752 269.904 694.752C268.453 694.752 267.728 694.155 267.728 692.96C267.728 690.315 270.117 684.213 274.896 674.656C279.675 665.099 282.064 659.381 282.064 657.504C282.064 656.651 281.125 656.224 279.248 656.224C271.653 656.224 258.128 668.64 238.672 693.472C237.051 695.776 234.363 699.232 230.608 703.84C230.352 704.181 229.925 704.352 229.328 704.352ZM338.923 699.36C332.011 699.36 328.555 695.477 328.555 687.712C328.555 684.128 329.408 680.373 331.115 676.448C332.822 672.523 335.083 668.896 337.899 665.568C340.715 662.155 343.83 659.381 347.243 657.248C350.742 655.115 354.283 654.048 357.867 654.048C361.024 654.048 363.328 655.243 364.779 657.632C366.23 660.021 366.955 662.667 366.955 665.568C366.955 669.408 366.187 673.333 364.651 677.344C363.115 681.269 361.024 684.896 358.379 688.224C355.734 691.552 352.747 694.24 349.419 696.288C346.091 698.336 342.592 699.36 338.923 699.36ZM338.795 695.264C339.307 695.264 339.606 695.221 339.691 695.136C343.019 694.709 346.091 693.515 348.907 691.552C351.723 689.589 354.155 687.157 356.203 684.256C358.336 681.269 359.958 678.069 361.067 674.656C362.176 671.243 362.731 667.872 362.731 664.544C362.731 662.581 362.176 661.045 361.067 659.936C359.958 658.827 358.55 658.272 356.843 658.272C354.368 658.272 351.723 659.296 348.907 661.344C346.176 663.392 343.574 665.995 341.099 669.152C338.71 672.309 336.747 675.637 335.211 679.136C333.675 682.549 332.907 685.621 332.907 688.352C332.907 692.96 334.87 695.264 338.795 695.264ZM366.7 703.2C365.335 703.2 364.652 702.645 364.652 701.536C364.652 701.109 364.823 700.597 365.164 700C365.505 699.317 365.804 698.763 366.06 698.336L377.58 675.168C382.529 665.099 385.004 659.509 385.004 658.4C385.004 657.205 385.601 656.608 386.796 656.608C388.417 656.608 389.228 657.461 389.228 659.168C389.228 659.765 388.844 661.045 388.076 663.008C387.308 664.971 386.327 667.189 385.132 669.664C383.084 674.101 381.377 677.515 380.012 679.904C382.572 676.917 385.175 674.101 387.82 671.456C390.465 668.811 393.153 666.293 395.884 663.904C403.991 656.821 410.22 653.28 414.572 653.28C417.559 653.28 419.052 654.688 419.052 657.504C419.052 660.064 416.876 665.824 412.524 674.784C408.172 683.829 405.996 689.547 405.996 691.936C405.996 693.045 406.38 693.6 407.148 693.6C407.404 693.6 407.788 693.515 408.3 693.344C408.897 693.088 409.495 692.96 410.092 692.96C411.543 692.96 412.268 693.643 412.268 695.008C412.268 696.715 410.433 697.568 406.764 697.568C405.057 697.568 403.82 697.184 403.052 696.416C402.284 695.563 401.9 694.453 401.9 693.088C401.9 688.992 403.991 682.763 408.172 674.4C412.353 666.123 414.444 661.131 414.444 659.424C414.444 658.4 414.06 657.888 413.292 657.888C411.415 657.888 408.385 659.467 404.204 662.624C399.681 666.037 395.159 669.963 390.636 674.4C386.113 678.837 381.804 683.915 377.708 689.632L368.748 702.048C368.236 702.816 367.553 703.2 366.7 703.2Z" fill="white"/>
<path d="M174.43 715.484V717.594H162.945V749H160.484V717.594H149.234V715.484H174.43ZM181.842 715.484V718.297H178.912V715.484H181.842ZM181.607 724.391V749H179.146V724.391H181.607ZM189.839 749V724.391H191.597L191.855 727.484C194.371 725.422 197.097 724.391 200.035 724.391C203.91 724.391 206.417 725.516 207.558 727.766C210.386 725.516 213.253 724.391 216.16 724.391C221.66 724.391 224.41 727.117 224.41 732.57V749H221.949V732.57C221.949 728.586 220.011 726.594 216.136 726.594C213.042 726.594 210.488 727.656 208.472 729.781V749H206.011V732.172C206.011 728.453 204.011 726.594 200.011 726.594C197.105 726.594 194.535 727.656 192.3 729.781V749H189.839ZM242.087 724.391C248.822 724.391 252.189 728.117 252.189 735.57C252.189 736.102 252.173 736.656 252.142 737.234H233.462C233.462 743.672 236.868 746.891 243.681 746.891C246.478 746.891 248.962 746.5 251.134 745.719V747.828C248.962 748.609 246.478 749 243.681 749C235.228 749 231.001 744.805 231.001 736.414C231.001 728.398 234.697 724.391 242.087 724.391ZM233.462 735.031H249.822C249.728 729.312 247.15 726.453 242.087 726.453C236.618 726.453 233.743 729.312 233.462 735.031ZM269.309 742.039C269.309 737.148 272.559 734.703 279.059 734.703C281.356 734.703 283.809 734.859 286.419 735.172V732.148C286.419 728.383 284.052 726.5 279.317 726.5C276.786 726.5 274.192 726.891 271.536 727.672V725.562C274.192 724.781 276.786 724.391 279.317 724.391C285.692 724.391 288.88 726.938 288.88 732.031V749H287.38L286.817 746.562C283.739 748.188 280.755 749 277.864 749C272.161 749 269.309 746.68 269.309 742.039ZM279.059 736.812C274.2 736.812 271.77 738.531 271.77 741.969C271.77 745.25 273.802 746.891 277.864 746.891C280.864 746.891 283.716 746.094 286.419 744.5V737.281C283.809 736.969 281.356 736.812 279.059 736.812ZM296.643 749V724.391H298.401L298.706 727.531C301.846 725.438 304.924 724.391 307.94 724.391C313.924 724.391 316.917 726.977 316.917 732.148V749H314.456V732.078C314.456 728.422 312.245 726.594 307.823 726.594C304.87 726.594 301.963 727.633 299.104 729.711V749H296.643ZM342.61 728C340.235 727.156 337.766 726.734 335.203 726.734C329.157 726.734 326.133 729.836 326.133 736.039C326.133 743.211 329.157 746.797 335.203 746.797C337.766 746.797 340.235 746.492 342.61 745.883V728ZM345.071 747.523C342.399 748.508 339.032 749 334.969 749C327.328 749 323.508 744.734 323.508 736.203C323.508 728.328 327.399 724.391 335.18 724.391C337.617 724.391 340.094 724.781 342.61 725.562V715.484H345.071V747.523ZM367.23 746.117C369.746 746.57 372.019 746.797 374.051 746.797C380.457 746.797 383.66 743.211 383.66 736.039C383.66 729.836 380.715 726.734 374.824 726.734C372.574 726.734 370.043 727.156 367.23 728V746.117ZM364.769 715.484H367.23V725.562C370.183 724.781 372.723 724.391 374.848 724.391C382.316 724.391 386.051 728.328 386.051 736.203C386.051 744.734 382.121 749 374.262 749C370.73 749 367.566 748.664 364.769 747.992V715.484ZM412.892 724.391V749H411.087L410.806 745.859C407.978 747.953 404.822 749 401.337 749C395.525 749 392.619 745.945 392.619 739.836V724.391H395.08V739.906C395.08 744.5 397.205 746.797 401.455 746.797C404.564 746.797 407.556 745.758 410.431 743.68V724.391H412.892ZM438.585 728C436.21 727.156 433.742 726.734 431.179 726.734C425.132 726.734 422.109 729.836 422.109 736.039C422.109 743.211 425.132 746.797 431.179 746.797C433.742 746.797 436.21 746.492 438.585 745.883V728ZM441.046 747.523C438.374 748.508 435.007 749 430.945 749C423.304 749 419.484 744.734 419.484 736.203C419.484 728.328 423.374 724.391 431.156 724.391C433.593 724.391 436.07 724.781 438.585 725.562V715.484H441.046V747.523ZM466.646 727.156C464.38 726.781 462.153 726.594 459.966 726.594C453.325 726.594 450.005 729.898 450.005 736.508C450.005 743.273 453.107 746.656 459.31 746.656C461.56 746.656 464.005 746.234 466.646 745.391V727.156ZM469.107 749C469.107 754.938 465.489 757.906 458.255 757.906C455.224 757.906 452.536 757.516 450.193 756.734V754.625C452.583 755.406 455.286 755.797 458.302 755.797C463.864 755.797 466.646 753.531 466.646 749V747.828C463.864 748.609 461.411 749 459.286 749C451.505 749 447.614 744.852 447.614 736.555C447.614 728.445 451.794 724.391 460.153 724.391C463.325 724.391 466.31 724.727 469.107 725.398V749ZM486.784 724.391C493.518 724.391 496.886 728.117 496.886 735.57C496.886 736.102 496.87 736.656 496.839 737.234H478.159C478.159 743.672 481.565 746.891 488.378 746.891C491.175 746.891 493.659 746.5 495.831 745.719V747.828C493.659 748.609 491.175 749 488.378 749C479.925 749 475.698 744.805 475.698 736.414C475.698 728.398 479.393 724.391 486.784 724.391ZM478.159 735.031H494.518C494.425 729.312 491.847 726.453 486.784 726.453C481.315 726.453 478.44 729.312 478.159 735.031ZM503.36 720.406H505.094L505.54 724.391H512.922V726.5H505.751V742.039C505.751 745.273 506.938 746.891 509.313 746.891H512.922V749H509.36C505.36 749 503.36 746.789 503.36 742.367V720.406ZM530.277 720.406H532.012L532.457 724.391H539.84V726.5H532.668V742.039C532.668 745.273 533.856 746.891 536.231 746.891H539.84V749H536.277C532.277 749 530.277 746.789 530.277 742.367V720.406ZM545.33 749V724.391H547.088L547.392 728.469C549.861 725.75 552.611 724.391 555.642 724.391V726.359C552.705 726.359 550.088 727.789 547.791 730.648V749H545.33ZM559.07 742.039C559.07 737.148 562.32 734.703 568.82 734.703C571.117 734.703 573.57 734.859 576.179 735.172V732.148C576.179 728.383 573.812 726.5 569.078 726.5C566.547 726.5 563.953 726.891 561.297 727.672V725.562C563.953 724.781 566.547 724.391 569.078 724.391C575.453 724.391 578.64 726.938 578.64 732.031V749H577.14L576.578 746.562C573.5 748.188 570.515 749 567.625 749C561.922 749 559.07 746.68 559.07 742.039ZM568.82 736.812C563.961 736.812 561.531 738.531 561.531 741.969C561.531 745.25 563.562 746.891 567.625 746.891C570.625 746.891 573.476 746.094 576.179 744.5V737.281C573.57 736.969 571.117 736.812 568.82 736.812ZM604.216 748.297C602.185 748.766 599.997 749 597.654 749C589.372 749 585.232 744.742 585.232 736.227C585.232 728.336 589.372 724.391 597.654 724.391C599.997 724.391 602.185 724.625 604.216 725.094V727.203C602.029 726.734 599.919 726.5 597.888 726.5C591.247 726.5 587.927 729.742 587.927 736.227C587.927 743.336 591.247 746.891 597.888 746.891C599.919 746.891 602.029 746.656 604.216 746.188V748.297ZM609.987 749V715.484H612.448V726.547C615.308 725.109 618.456 724.391 621.894 724.391C627.706 724.391 630.612 726.758 630.612 731.492C630.612 735.086 628.034 737.539 622.878 738.852L631.222 749H627.612L619.784 738.805V737.328C625.362 736.688 628.152 734.734 628.152 731.469C628.152 728.156 625.886 726.5 621.355 726.5C618.339 726.5 615.37 727.234 612.448 728.703V749H609.987ZM646.298 724.391C653.032 724.391 656.399 728.117 656.399 735.57C656.399 736.102 656.384 736.656 656.353 737.234H637.673C637.673 743.672 641.079 746.891 647.892 746.891C650.688 746.891 653.173 746.5 655.345 745.719V747.828C653.173 748.609 650.688 749 647.892 749C639.438 749 635.212 744.805 635.212 736.414C635.212 728.398 638.907 724.391 646.298 724.391ZM637.673 735.031H654.032C653.938 729.312 651.36 726.453 646.298 726.453C640.829 726.453 637.954 729.312 637.673 735.031ZM662.967 749V724.391H664.725L665.03 728.469C667.499 725.75 670.249 724.391 673.28 724.391V726.359C670.342 726.359 667.725 727.789 665.428 730.648V749H662.967Z" fill="white"/>
<g filter="url(#filter0_d_101_24)">
<path d="M418.268 489.783C421.774 485.833 427.673 489.291 431.445 491.951C435.216 494.611 439.155 498.353 441.936 501.976C447.794 509.603 454.58 516.533 459.883 524.53C467.75 536.389 473.255 549.231 481.645 560.747C483.704 563.572 485.493 566.513 488.375 568.555C493.208 571.978 497.946 573.885 503.899 574.558C505.787 574.772 507.713 574.301 509.279 573.254C517.558 567.719 517.02 565.349 517.763 557.277C518.899 544.966 516.902 533.882 513.501 521.928C508.834 505.523 497.799 483.758 488.892 468.914L483.439 458.602L463.697 425.204C456.207 414.292 447.946 401.421 441.059 390.441C435.185 381.076 428.827 372.01 421.967 363.293C407.039 344.321 395.318 320.327 383.313 299.115L372.854 278.52C370.656 274.193 368.029 270.102 365.524 265.946C356.672 251.257 352.632 234.209 356.014 216.575C357.195 210.417 358.708 204.721 362.52 199.658C379.175 177.538 406.774 183.558 432.075 180.435C473.122 175.368 489.722 165.827 528.084 139.151C531.227 136.965 540.982 125.434 540.422 121.585C538.887 111.054 531.299 103.978 523.539 101.58C479.679 88.0252 450.24 73.5373 417.296 47.6744C409.676 41.6923 402.676 34.8909 394.312 29.9201C378.758 20.6743 359.584 18.418 341.865 17.0562C313.524 14.8778 284.936 19.5644 259.32 31.4858C231.439 44.4588 209.388 63.628 199.586 91.9847C199.38 92.5845 199.133 93.1765 198.842 93.7425V93.7425C197.892 95.5924 197.109 97.525 196.53 99.5226C191.786 115.889 188.611 131.554 190.002 147.944C191.07 160.521 194.2 172.843 196.088 185.331C197.189 192.607 197.866 199.936 198.507 207.263C202.576 253.789 205.173 295.463 206.296 342.142V347.116C207.118 379.1 204.586 401.068 204.021 433.153C203.876 441.473 203.203 455.085 202.334 463.364C201.446 471.802 201.653 483.553 200.434 490.915C194.671 525.694 189.595 549.796 178.896 584.603L175.579 594.797V594.797C169.068 608.94 147.815 603.672 148.663 588.125L149.016 581.652C149.304 576.373 146.838 571.338 142.599 568.18C65.0226 510.391 15 419.436 15 317.074C15 142.536 160.518 1.00002 340.012 1.00002C519.506 1.00002 666.503 145.441 665.023 317.074C663.554 487.628 592.6 552.778 448.799 614.172C441.397 617.333 432.851 612.446 431.953 604.447V604.447C428.998 578.012 427.666 555.952 420.511 530.277C416.938 517.456 412.881 506.617 415.808 494.113C416.194 492.467 417.091 490.997 418.268 489.783V489.783Z" fill="white"/>
<path d="M405.706 78.5897C405.706 91.795 394.632 102.5 380.972 102.5C367.312 102.5 356.24 91.795 356.24 78.5897C356.24 65.3843 367.312 54.6793 380.972 54.6793C394.632 54.6793 405.706 65.3843 405.706 78.5897Z" fill="white"/>
<path d="M273.983 82.1634V146.927C273.983 151.449 269.566 154.764 265.033 153.649C247.982 149.456 235.3 133.545 235.3 114.563C235.3 95.5506 247.982 79.6358 265.032 75.4413C269.566 74.3261 273.983 77.6418 273.983 82.1634Z" fill="white"/>
</g>
<defs>
<filter id="filter0_d_101_24" x="0" y="3.05176e-05" width="680.034" height="644.144" filterUnits="userSpaceOnUse" color-interpolation-filters="sRGB">
<feFlood flood-opacity="0" result="BackgroundImageFix"/>
<feColorMatrix in="SourceAlpha" type="matrix" values="0 0 0 0 0 0 0 0 0 0 0 0 0 0 0 0 0 0 127 0" result="hardAlpha"/>
<feOffset dy="14"/>
<feGaussianBlur stdDeviation="7.5"/>
<feComposite in2="hardAlpha" operator="out"/>
<feColorMatrix type="matrix" values="0 0 0 0 0 0 0 0 0 0 0 0 0 0 0 0 0 0 0.25 0"/>
<feBlend mode="normal" in2="BackgroundImageFix" result="effect1_dropShadow_101_24"/>
<feBlend mode="normal" in="SourceGraphic" in2="effect1_dropShadow_101_24" result="shape"/>
</filter>
</defs>
</svg>
