<svg width="706" height="851" viewBox="0 0 706 851" fill="none" xmlns="http://www.w3.org/2000/svg">
<path d="M207.315 799.918C198.148 799.918 191.815 798.085 188.315 794.418C184.815 790.918 182.981 786.335 182.815 780.668C182.815 775.835 183.731 770.085 185.565 763.418C187.565 756.585 189.565 750.085 191.565 743.918C195.565 732.085 199.731 720.418 204.065 708.918C208.398 697.418 212.731 686.335 217.065 675.668C221.565 665.001 225.815 654.835 229.815 645.168C233.981 635.501 237.815 626.585 241.315 618.418C229.981 618.585 220.148 618.918 211.815 619.418C203.648 619.918 196.148 620.585 189.315 621.418C182.481 622.085 175.398 623.085 168.065 624.418C168.898 617.418 172.148 612.085 177.815 608.418C183.648 604.585 191.398 601.918 201.065 600.418C210.731 598.918 221.815 598.168 234.315 598.168C240.815 598.168 246.898 598.335 252.565 598.668C258.398 598.835 263.898 599.168 269.065 599.668C274.398 600.168 279.565 600.668 284.565 601.168C295.065 602.168 303.398 602.835 309.565 603.168C315.898 603.501 320.398 603.668 323.065 603.668C318.065 608.335 311.731 611.751 304.065 613.918C296.565 615.918 288.648 617.168 280.315 617.668C271.981 618.168 264.065 618.418 256.565 618.418C248.565 638.085 241.231 658.501 234.565 679.668C227.898 700.835 221.731 721.751 216.065 742.418C213.898 750.418 212.065 757.251 210.565 762.918C209.231 768.418 208.231 773.501 207.565 778.168C206.898 782.668 206.565 787.501 206.565 792.668C206.565 793.501 206.565 794.418 206.565 795.418C206.731 796.585 206.981 798.085 207.315 799.918ZM276.975 785.668C269.642 785.668 264.142 783.501 260.475 779.168C256.808 774.835 254.975 769.585 254.975 763.418C254.975 759.585 255.642 754.751 256.975 748.918C258.308 743.085 260.142 737.001 262.475 730.668C264.975 724.168 267.808 718.085 270.975 712.418C274.142 706.751 277.558 702.168 281.225 698.668C284.892 695.001 288.558 693.168 292.225 693.168C294.225 693.168 295.975 693.835 297.475 695.168C298.975 696.335 299.725 698.085 299.725 700.418C299.725 702.585 298.392 705.835 295.725 710.168C293.225 714.501 290.225 719.501 286.725 725.168C283.392 730.835 280.392 736.751 277.725 742.918C275.225 748.918 273.975 754.668 273.975 760.168C273.975 765.501 274.892 769.085 276.725 770.918C278.725 772.585 281.558 773.418 285.225 773.418C290.892 773.418 297.058 770.585 303.725 764.918C310.392 759.251 317.308 749.335 324.475 735.168L328.225 739.168C322.392 753.835 314.975 765.251 305.975 773.418C296.975 781.585 287.308 785.668 276.975 785.668ZM306.475 672.918C303.308 672.918 300.392 672.168 297.725 670.668C295.225 669.001 293.975 666.501 293.975 663.168C293.975 659.168 296.142 655.751 300.475 652.918C304.808 650.085 309.308 648.668 313.975 648.668C316.975 648.668 319.475 649.335 321.475 650.668C323.642 652.001 324.725 654.418 324.725 657.918C324.725 661.418 322.808 664.835 318.975 668.168C315.142 671.335 310.975 672.918 306.475 672.918ZM448.76 785.918C442.26 785.918 437.427 784.001 434.26 780.168C431.093 776.335 429.51 771.751 429.51 766.418C429.51 762.585 430.093 758.751 431.26 754.918C432.427 751.085 433.593 747.335 434.76 743.668C435.927 739.835 436.51 736.418 436.51 733.418C436.51 730.585 435.927 728.668 434.76 727.668C433.76 726.501 432.427 725.918 430.76 725.918C426.927 725.918 422.427 728.835 417.26 734.668C412.26 740.501 406.01 749.001 398.51 760.168C395.843 764.168 393.343 768.418 391.01 772.918C388.677 777.251 386.593 780.918 384.76 783.918C383.26 783.918 381.26 783.668 378.76 783.168C376.427 782.668 374.343 781.918 372.51 780.918C370.677 780.085 369.76 778.918 369.76 777.418C369.76 775.918 370.593 773.001 372.26 768.668C373.927 764.335 375.843 759.335 378.01 753.668C380.177 747.835 382.093 742.168 383.76 736.668C385.427 731.001 386.26 726.251 386.26 722.418C386.26 720.085 385.843 718.251 385.01 716.918C384.177 715.585 382.843 714.918 381.01 714.918C377.51 714.918 373.26 717.001 368.26 721.168C363.427 725.335 358.26 730.835 352.76 737.668C347.427 744.335 342.343 751.835 337.51 760.168C332.843 768.335 329.01 776.585 326.01 784.918C324.177 784.918 321.927 784.501 319.26 783.668C316.593 783.001 314.26 782.085 312.26 780.918C310.26 779.918 309.26 779.001 309.26 778.168C309.26 778.001 309.843 775.668 311.01 771.168C312.177 766.501 313.593 760.751 315.26 753.918C316.927 747.085 318.677 740.085 320.51 732.918C322.343 725.751 323.927 719.501 325.26 714.168C325.76 712.335 327.593 710.751 330.76 709.418C333.927 707.918 336.677 707.168 339.01 707.168C341.343 707.168 343.343 707.918 345.01 709.418C346.677 710.918 347.51 712.918 347.51 715.418C347.51 717.085 347.177 719.501 346.51 722.668C345.843 725.835 345.01 729.418 344.01 733.418C347.51 728.751 351.177 724.168 355.01 719.668C359.01 715.001 363.093 710.835 367.26 707.168C371.593 703.501 375.843 700.585 380.01 698.418C384.343 696.251 388.593 695.168 392.76 695.168C398.927 695.168 403.093 697.418 405.26 701.918C407.427 706.251 408.51 711.001 408.51 716.168C408.51 718.335 408.343 720.501 408.01 722.668C407.677 724.668 407.177 726.751 406.51 728.918C406.01 730.918 405.26 733.335 404.26 736.168C407.427 731.501 410.843 727.251 414.51 723.418C418.343 719.418 422.427 716.251 426.76 713.918C431.093 711.585 435.677 710.418 440.51 710.418C447.01 710.418 451.51 712.418 454.01 716.418C456.51 720.251 457.76 724.501 457.76 729.168C457.76 733.501 457.01 738.085 455.51 742.918C454.177 747.585 452.76 752.085 451.26 756.418C449.927 760.585 449.26 764.168 449.26 767.168C449.26 768.835 449.677 770.418 450.51 771.918C451.343 773.251 453.01 773.918 455.51 773.918C460.01 773.918 464.343 771.835 468.51 767.668C472.677 763.501 476.51 758.418 480.01 752.418C483.677 746.251 486.76 740.418 489.26 734.918L493.51 740.168C490.843 747.001 487.343 754.001 483.01 761.168C478.843 768.168 473.927 774.001 468.26 778.668C462.593 783.501 456.093 785.918 448.76 785.918ZM499.549 786.168C492.049 786.168 486.882 783.668 484.049 778.668C481.382 773.835 480.049 768.501 480.049 762.668C480.049 757.335 480.882 751.918 482.549 746.418C484.216 740.751 486.466 735.501 489.299 730.668C492.299 725.835 495.549 722.001 499.049 719.168C502.716 716.168 506.382 714.668 510.049 714.668C511.216 714.668 512.549 714.918 514.049 715.418C515.716 715.751 516.882 716.335 517.549 717.168C515.549 719.668 513.466 722.751 511.299 726.418C509.299 730.085 507.382 734.001 505.549 738.168C503.882 742.168 502.549 746.251 501.549 750.418C500.549 754.585 500.049 758.418 500.049 761.918C500.049 765.251 500.632 768.001 501.799 770.168C503.132 772.335 505.382 773.418 508.549 773.418C511.716 773.418 515.466 771.668 519.799 768.168C524.299 764.501 528.549 760.335 532.549 755.668C527.216 750.835 523.382 745.585 521.049 739.918C518.716 734.085 517.549 727.085 517.549 718.918C517.549 715.418 518.382 711.418 520.049 706.918C521.882 702.418 524.716 698.501 528.549 695.168C532.549 691.835 537.882 690.168 544.549 690.168C551.716 690.168 556.716 692.168 559.549 696.168C562.549 700.168 564.049 704.918 564.049 710.418C564.049 716.585 562.382 723.501 559.049 731.168C555.882 738.835 552.049 746.085 547.549 752.918C549.549 753.918 551.882 754.418 554.549 754.418C557.049 754.418 560.049 753.835 563.549 752.668C567.049 751.501 570.466 749.585 573.799 746.918C577.132 744.085 579.799 740.335 581.799 735.668L586.299 738.918C582.632 747.418 577.716 753.668 571.549 757.668C565.549 761.501 559.632 763.418 553.799 763.418C551.632 763.418 549.466 763.251 547.299 762.918C545.132 762.418 543.132 761.835 541.299 761.168C535.632 767.835 529.132 773.668 521.799 778.668C514.466 783.668 507.049 786.168 499.549 786.168ZM539.049 747.668C543.049 741.835 546.466 735.585 549.299 728.918C552.132 722.251 553.549 716.085 553.549 710.418C553.549 706.585 552.966 703.835 551.799 702.168C550.632 700.335 548.882 699.418 546.549 699.418C543.382 699.418 540.132 701.668 536.799 706.168C533.466 710.668 531.799 716.335 531.799 723.168C531.799 726.668 532.382 730.918 533.549 735.918C534.882 740.918 536.716 744.835 539.049 747.668ZM660.317 783.168C653.817 783.168 648.817 781.501 645.317 778.168C641.983 775.001 640.317 770.918 640.317 765.918C640.317 762.585 640.9 759.085 642.067 755.418C643.233 751.585 644.4 747.751 645.567 743.918C646.733 740.085 647.317 736.418 647.317 732.918C647.317 729.251 646.4 726.751 644.567 725.418C642.9 723.918 640.9 723.168 638.567 723.168C633.567 723.168 628.4 725.251 623.067 729.418C617.9 733.418 612.817 738.501 607.817 744.668C602.983 750.835 598.4 757.251 594.067 763.918C589.733 770.585 585.983 776.585 582.817 781.918C579.65 781.918 576.65 781.335 573.817 780.168C570.983 779.168 568.567 777.335 566.567 774.668C566.733 773.835 567.733 771.335 569.567 767.168C571.233 762.835 573.15 757.751 575.317 751.918C577.483 745.918 579.4 739.668 581.067 733.168C582.733 726.668 583.567 720.751 583.567 715.418C584.733 714.085 586.483 712.751 588.817 711.418C591.317 710.085 593.9 709.418 596.567 709.418C602.4 709.418 605.317 711.918 605.317 716.918C605.317 718.918 604.9 721.918 604.067 725.918C603.4 729.751 602.4 734.168 601.067 739.168C605.4 733.335 610.15 727.835 615.317 722.668C620.483 717.501 625.817 713.335 631.317 710.168C636.983 706.835 642.65 705.168 648.317 705.168C655.483 705.168 660.733 707.585 664.067 712.418C667.567 717.251 669.317 722.585 669.317 728.418C669.317 733.418 668.483 738.085 666.817 742.418C665.15 746.751 663.483 750.835 661.817 754.668C660.317 758.501 659.567 762.251 659.567 765.918C659.567 768.585 660.15 770.501 661.317 771.668C662.65 772.668 664.067 773.168 665.567 773.168C669.567 773.168 673.733 771.251 678.067 767.418C682.4 763.585 686.483 758.751 690.317 752.918C694.317 746.918 697.817 740.918 700.817 734.918L705.067 738.418C701.567 746.585 697.567 754.085 693.067 760.918C688.733 767.585 683.817 773.001 678.317 777.168C672.983 781.168 666.983 783.168 660.317 783.168Z" fill="#292626"/>
<path d="M195.646 807.907V810.016H184.161V841.423H181.7V810.016H170.45V807.907H195.646ZM203.057 807.907V810.719H200.128V807.907H203.057ZM202.823 816.813V841.423H200.362V816.813H202.823ZM211.055 841.423V816.813H212.813L213.071 819.907C215.586 817.844 218.313 816.813 221.251 816.813C225.126 816.813 227.633 817.938 228.774 820.188C231.602 817.938 234.469 816.813 237.376 816.813C242.876 816.813 245.626 819.54 245.626 824.993V841.423H243.165V824.993C243.165 821.009 241.227 819.016 237.352 819.016C234.258 819.016 231.704 820.079 229.688 822.204V841.423H227.227V824.594C227.227 820.876 225.227 819.016 221.227 819.016C218.321 819.016 215.751 820.079 213.516 822.204V841.423H211.055ZM263.303 816.813C270.037 816.813 273.405 820.54 273.405 827.993C273.405 828.524 273.389 829.079 273.358 829.657H254.678C254.678 836.094 258.084 839.313 264.897 839.313C267.694 839.313 270.178 838.923 272.35 838.141V840.251C270.178 841.032 267.694 841.423 264.897 841.423C256.444 841.423 252.217 837.227 252.217 828.837C252.217 820.821 255.912 816.813 263.303 816.813ZM254.678 827.454H271.037C270.944 821.735 268.366 818.876 263.303 818.876C257.834 818.876 254.959 821.735 254.678 827.454ZM290.525 834.462C290.525 829.571 293.775 827.126 300.275 827.126C302.572 827.126 305.025 827.282 307.635 827.594V824.571C307.635 820.805 305.267 818.923 300.533 818.923C298.002 818.923 295.408 819.313 292.752 820.094V817.985C295.408 817.204 298.002 816.813 300.533 816.813C306.908 816.813 310.096 819.36 310.096 824.454V841.423H308.596L308.033 838.985C304.955 840.61 301.971 841.423 299.08 841.423C293.377 841.423 290.525 839.102 290.525 834.462ZM300.275 829.235C295.416 829.235 292.986 830.954 292.986 834.391C292.986 837.673 295.017 839.313 299.08 839.313C302.08 839.313 304.931 838.516 307.635 836.923V829.704C305.025 829.391 302.572 829.235 300.275 829.235ZM317.859 841.423V816.813H319.617L319.921 819.954C323.062 817.86 326.14 816.813 329.156 816.813C335.14 816.813 338.132 819.399 338.132 824.571V841.423H335.671V824.501C335.671 820.844 333.461 819.016 329.039 819.016C326.086 819.016 323.179 820.055 320.32 822.134V841.423H317.859ZM363.826 820.423C361.451 819.579 358.982 819.157 356.419 819.157C350.372 819.157 347.349 822.259 347.349 828.462C347.349 835.634 350.372 839.219 356.419 839.219C358.982 839.219 361.451 838.915 363.826 838.305V820.423ZM366.286 839.946C363.615 840.93 360.247 841.423 356.185 841.423C348.544 841.423 344.724 837.157 344.724 828.626C344.724 820.751 348.615 816.813 356.396 816.813C358.833 816.813 361.31 817.204 363.826 817.985V807.907H366.286V839.946ZM388.446 838.54C390.962 838.993 393.235 839.219 395.266 839.219C401.673 839.219 404.876 835.634 404.876 828.462C404.876 822.259 401.931 819.157 396.04 819.157C393.79 819.157 391.259 819.579 388.446 820.423V838.54ZM385.985 807.907H388.446V817.985C391.399 817.204 393.938 816.813 396.063 816.813C403.532 816.813 407.266 820.751 407.266 828.626C407.266 837.157 403.337 841.423 395.477 841.423C391.946 841.423 388.782 841.087 385.985 840.415V807.907ZM434.108 816.813V841.423H432.303L432.022 838.282C429.194 840.376 426.038 841.423 422.553 841.423C416.741 841.423 413.835 838.368 413.835 832.259V816.813H416.296V832.329C416.296 836.923 418.421 839.219 422.671 839.219C425.78 839.219 428.772 838.18 431.647 836.102V816.813H434.108ZM459.801 820.423C457.426 819.579 454.957 819.157 452.395 819.157C446.348 819.157 443.325 822.259 443.325 828.462C443.325 835.634 446.348 839.219 452.395 839.219C454.957 839.219 457.426 838.915 459.801 838.305V820.423ZM462.262 839.946C459.59 840.93 456.223 841.423 452.161 841.423C444.52 841.423 440.7 837.157 440.7 828.626C440.7 820.751 444.59 816.813 452.371 816.813C454.809 816.813 457.286 817.204 459.801 817.985V807.907H462.262V839.946ZM487.861 819.579C485.596 819.204 483.369 819.016 481.182 819.016C474.541 819.016 471.221 822.321 471.221 828.93C471.221 835.696 474.322 839.079 480.526 839.079C482.776 839.079 485.221 838.657 487.861 837.813V819.579ZM490.322 841.423C490.322 847.36 486.705 850.329 479.471 850.329C476.44 850.329 473.752 849.938 471.408 849.157V847.048C473.799 847.829 476.502 848.219 479.518 848.219C485.08 848.219 487.861 845.954 487.861 841.423V840.251C485.08 841.032 482.627 841.423 480.502 841.423C472.721 841.423 468.83 837.274 468.83 828.977C468.83 820.868 473.01 816.813 481.369 816.813C484.541 816.813 487.526 817.149 490.322 817.821V841.423ZM508 816.813C514.734 816.813 518.101 820.54 518.101 827.993C518.101 828.524 518.086 829.079 518.055 829.657H499.375C499.375 836.094 502.781 839.313 509.594 839.313C512.391 839.313 514.875 838.923 517.047 838.141V840.251C514.875 841.032 512.391 841.423 509.594 841.423C501.141 841.423 496.914 837.227 496.914 828.837C496.914 820.821 500.609 816.813 508 816.813ZM499.375 827.454H515.734C515.641 821.735 513.062 818.876 508 818.876C502.531 818.876 499.656 821.735 499.375 827.454ZM524.576 812.829H526.31L526.755 816.813H534.138V818.923H526.966V834.462C526.966 837.696 528.154 839.313 530.529 839.313H534.138V841.423H530.576C526.576 841.423 524.576 839.212 524.576 834.79V812.829ZM551.493 812.829H553.228L553.673 816.813H561.056V818.923H553.884V834.462C553.884 837.696 555.071 839.313 557.446 839.313H561.056V841.423H557.493C553.493 841.423 551.493 839.212 551.493 834.79V812.829ZM566.546 841.423V816.813H568.304L568.608 820.891C571.077 818.173 573.827 816.813 576.858 816.813V818.782C573.921 818.782 571.304 820.212 569.007 823.071V841.423H566.546ZM580.286 834.462C580.286 829.571 583.536 827.126 590.036 827.126C592.333 827.126 594.786 827.282 597.395 827.594V824.571C597.395 820.805 595.028 818.923 590.294 818.923C587.762 818.923 585.169 819.313 582.512 820.094V817.985C585.169 817.204 587.762 816.813 590.294 816.813C596.669 816.813 599.856 819.36 599.856 824.454V841.423H598.356L597.794 838.985C594.716 840.61 591.731 841.423 588.841 841.423C583.137 841.423 580.286 839.102 580.286 834.462ZM590.036 829.235C585.176 829.235 582.747 830.954 582.747 834.391C582.747 837.673 584.778 839.313 588.841 839.313C591.841 839.313 594.692 838.516 597.395 836.923V829.704C594.786 829.391 592.333 829.235 590.036 829.235ZM625.432 840.719C623.401 841.188 621.213 841.423 618.87 841.423C610.588 841.423 606.448 837.165 606.448 828.649C606.448 820.759 610.588 816.813 618.87 816.813C621.213 816.813 623.401 817.048 625.432 817.516V819.626C623.245 819.157 621.135 818.923 619.104 818.923C612.463 818.923 609.143 822.165 609.143 828.649C609.143 835.759 612.463 839.313 619.104 839.313C621.135 839.313 623.245 839.079 625.432 838.61V840.719ZM631.203 841.423V807.907H633.664V818.969C636.524 817.532 639.672 816.813 643.11 816.813C648.922 816.813 651.828 819.18 651.828 823.915C651.828 827.509 649.25 829.962 644.094 831.274L652.438 841.423H648.828L641 831.227V829.751C646.578 829.11 649.367 827.157 649.367 823.891C649.367 820.579 647.102 818.923 642.57 818.923C639.555 818.923 636.586 819.657 633.664 821.126V841.423H631.203ZM667.514 816.813C674.248 816.813 677.615 820.54 677.615 827.993C677.615 828.524 677.6 829.079 677.568 829.657H658.889C658.889 836.094 662.295 839.313 669.107 839.313C671.904 839.313 674.389 838.923 676.561 838.141V840.251C674.389 841.032 671.904 841.423 669.107 841.423C660.654 841.423 656.428 837.227 656.428 828.837C656.428 820.821 660.123 816.813 667.514 816.813ZM658.889 827.454H675.248C675.154 821.735 672.576 818.876 667.514 818.876C662.045 818.876 659.17 821.735 658.889 827.454ZM684.183 841.423V816.813H685.941L686.246 820.891C688.715 818.173 691.465 816.813 694.496 816.813V818.782C691.558 818.782 688.941 820.212 686.644 823.071V841.423H684.183Z" fill="#292626"/>
<path d="M403.268 488.783C406.774 484.833 412.673 488.291 416.445 490.951C420.216 493.611 424.155 497.353 426.936 500.976C432.794 508.603 439.58 515.533 444.883 523.53C452.75 535.389 458.255 548.231 466.645 559.747C468.704 562.572 470.493 565.513 473.375 567.555C478.208 570.978 482.946 572.885 488.899 573.558C490.787 573.772 492.713 573.301 494.279 572.254C502.558 566.719 502.02 564.349 502.763 556.277C503.899 543.966 501.902 532.882 498.501 520.928C493.834 504.523 482.799 482.758 473.892 467.914L468.439 457.602L448.697 424.204C441.207 413.292 432.946 400.421 426.059 389.441C420.185 380.076 413.827 371.01 406.967 362.293C392.039 343.321 380.318 319.327 368.313 298.115L354.552 271.02C342.96 255.057 337.155 235.698 341.014 215.575C342.195 209.417 343.708 203.721 347.52 198.658C364.175 176.538 391.774 182.558 417.075 179.435C458.122 174.368 474.722 164.827 513.084 138.151C516.227 135.965 525.982 124.434 525.422 120.585C523.887 110.054 516.299 102.978 508.539 100.58C464.679 87.0252 435.24 72.5373 402.296 46.6744C394.676 40.6923 387.676 33.8909 379.312 28.9201C363.758 19.6743 344.584 17.418 326.865 16.0562C298.524 13.8778 269.936 18.5644 244.32 30.4858C216.439 43.4588 194.388 62.628 184.586 90.9847C184.38 91.5845 184.133 92.1765 183.842 92.7425L182.414 95.5233C177.19 112.983 173.526 129.556 175.002 146.944C176.07 159.521 179.2 171.843 181.088 184.331C182.189 191.607 182.866 198.936 183.507 206.263C187.576 252.789 190.173 294.463 191.296 341.142V346.116C192.118 378.1 189.586 400.068 189.021 432.153C188.876 440.473 188.203 454.085 187.334 462.364C186.446 470.802 186.653 482.553 185.434 489.915C179.671 524.694 174.595 548.796 163.896 583.603L160.579 593.797L129.631 661.024L134.479 572.167C52.9932 514.705 0 421.431 0 316.074C0 141.536 145.518 2.29743e-05 325.012 2.29743e-05C504.506 2.29743e-05 651.503 144.441 650.023 316.074C648.504 492.391 572.726 556.06 418.973 619.387C418.546 615.571 417.381 607.263 416.953 603.447C413.998 577.012 412.666 554.952 405.511 529.277C401.704 515.615 397.346 504.204 401.477 490.63L403.268 488.783Z" fill="#292626"/>
<path d="M390.706 77.5897C390.706 90.795 379.632 101.5 365.972 101.5C352.312 101.5 341.24 90.795 341.24 77.5897C341.24 64.3843 352.312 53.6793 365.972 53.6793C379.632 53.6793 390.706 64.3843 390.706 77.5897Z" fill="#292626"/>
<path d="M258.983 81.1634V145.927C258.983 150.449 254.566 153.764 250.033 152.649C232.982 148.456 220.3 132.545 220.3 113.563C220.3 94.5506 232.982 78.6358 250.032 74.4413C254.566 73.3261 258.983 76.6418 258.983 81.1634Z" fill="#292626"/>
</svg>
