<svg width="352" height="352" viewBox="0 0 352 352" fill="none" xmlns="http://www.w3.org/2000/svg">
<g clip-path="url(#clip0_103_49)">
<g filter="url(#filter0_d_103_49)">
<path d="M211.154 259.18C212.929 257.178 215.919 258.93 217.83 260.278C219.74 261.626 221.736 263.522 223.145 265.358C226.113 269.221 229.551 272.733 232.238 276.784C236.224 282.793 239.013 289.299 243.264 295.134C244.307 296.565 245.213 298.055 246.673 299.09C249.122 300.824 251.523 301.79 254.539 302.131C255.496 302.24 256.471 302.001 257.265 301.471C261.459 298.666 261.187 297.466 261.563 293.376C262.139 287.138 261.128 281.522 259.404 275.466C257.039 267.154 251.448 256.127 246.936 248.606L244.173 243.382L234.171 226.46C230.375 220.931 226.19 214.41 222.701 208.847C219.725 204.102 216.503 199.509 213.028 195.093C205.465 185.48 199.526 173.323 193.444 162.576C188.803 153.439 182.355 144.969 179.959 135.005C178.863 130.442 178.675 125.643 179.612 120.757C180.21 117.637 180.978 114.75 182.908 112.185C191.346 100.978 205.331 104.028 218.149 102.447C238.946 99.8791 247.356 95.0443 266.792 81.5293C268.386 80.4216 273.328 74.5795 273.044 72.6293C272.266 67.2937 268.421 63.7083 264.49 62.4934C242.268 55.6259 227.352 48.2855 210.661 35.1819C206.801 32.151 203.254 28.7051 199.016 26.1866C191.136 21.5021 181.421 20.3589 172.443 19.6689C158.085 18.5653 143.6 20.9397 130.621 26.9799C116.496 33.5527 105.323 43.2649 100.357 57.6321C100.253 57.936 100.127 58.2358 99.98 58.5227C99.4981 59.4599 99.1017 60.4391 98.8086 61.4512C96.4044 69.7432 94.7965 77.6803 95.5014 85.9842C96.0422 92.3564 97.6279 98.5993 98.5848 104.927C99.1427 108.613 99.4853 112.326 99.81 116.039C101.872 139.612 103.187 160.726 103.756 184.376V186.896C104.172 203.101 102.89 214.231 102.604 230.487C102.53 234.703 102.189 241.599 101.749 245.794C101.299 250.07 101.404 256.023 100.787 259.753C97.8671 277.374 95.2946 289.585 89.8736 307.221L88.1931 312.385C84.8947 319.551 74.1266 316.882 74.5563 309.006L74.7353 305.726C74.8812 303.051 73.6318 300.499 71.4837 298.899C32.1793 269.621 6.83496 223.537 6.83496 171.675C6.83496 83.244 80.5627 11.534 171.504 11.534C262.447 11.534 336.924 84.7161 336.174 171.675C335.43 258.088 299.48 291.096 226.622 322.202C222.872 323.803 218.542 321.327 218.087 317.275C216.59 303.881 215.915 292.704 212.29 279.696C210.48 273.2 208.424 267.709 209.907 261.374C210.103 260.54 210.558 259.794 211.154 259.18Z" fill="white"/>
<path d="M211.154 259.18C212.929 257.178 215.919 258.93 217.83 260.278C219.74 261.626 221.736 263.522 223.145 265.358C226.113 269.221 229.551 272.733 232.238 276.784C236.224 282.793 239.013 289.299 243.264 295.134C244.307 296.565 245.213 298.055 246.673 299.09C249.122 300.824 251.523 301.79 254.539 302.131C255.496 302.24 256.471 302.001 257.265 301.471C261.459 298.666 261.187 297.466 261.563 293.376C262.139 287.138 261.128 281.522 259.404 275.466C257.039 267.154 251.448 256.127 246.936 248.606L244.173 243.382L234.171 226.46C230.375 220.931 226.19 214.41 222.701 208.847C219.725 204.102 216.503 199.509 213.028 195.093C205.465 185.48 199.526 173.323 193.444 162.576C188.803 153.439 182.355 144.969 179.959 135.005C178.863 130.442 178.675 125.643 179.612 120.757C180.21 117.637 180.978 114.75 182.908 112.185C191.346 100.978 205.331 104.028 218.149 102.447C238.946 99.8791 247.356 95.0443 266.792 81.5293C268.386 80.4216 273.328 74.5795 273.044 72.6293C272.266 67.2937 268.421 63.7083 264.49 62.4934C242.268 55.6259 227.352 48.2855 210.661 35.1819C206.801 32.151 203.254 28.7051 199.016 26.1866C191.136 21.5021 181.421 20.3589 172.443 19.6689C158.085 18.5653 143.6 20.9397 130.621 26.9799C116.496 33.5527 105.323 43.2649 100.357 57.6321C100.253 57.936 100.127 58.2358 99.98 58.5227C99.4981 59.4599 99.1017 60.4391 98.8086 61.4512C96.4044 69.7432 94.7965 77.6803 95.5014 85.9842C96.0422 92.3564 97.6279 98.5993 98.5848 104.927C99.1427 108.613 99.4853 112.326 99.81 116.039C101.872 139.612 103.187 160.726 103.756 184.376V186.896C104.172 203.101 102.89 214.231 102.604 230.487C102.53 234.703 102.189 241.599 101.749 245.794C101.299 250.07 101.404 256.023 100.787 259.753C97.8671 277.374 95.2946 289.585 89.8736 307.221L88.1931 312.385C84.8947 319.551 74.1266 316.882 74.5563 309.006L74.7353 305.726C74.8812 303.051 73.6318 300.499 71.4837 298.899C32.1793 269.621 6.83496 223.537 6.83496 171.675C6.83496 83.244 80.5627 11.534 171.504 11.534C262.447 11.534 336.924 84.7161 336.174 171.675C335.43 258.088 299.48 291.096 226.622 322.202C222.872 323.803 218.542 321.327 218.087 317.275C216.59 303.881 215.915 292.704 212.29 279.696C210.48 273.2 208.424 267.709 209.907 261.374C210.103 260.54 210.558 259.794 211.154 259.18Z" fill="url(#paint0_linear_103_49)"/>
<path d="M211.154 259.18C212.929 257.178 215.919 258.93 217.83 260.278C219.74 261.626 221.736 263.522 223.145 265.358C226.113 269.221 229.551 272.733 232.238 276.784C236.224 282.793 239.013 289.299 243.264 295.134C244.307 296.565 245.213 298.055 246.673 299.09C249.122 300.824 251.523 301.79 254.539 302.131C255.496 302.24 256.471 302.001 257.265 301.471C261.459 298.666 261.187 297.466 261.563 293.376C262.139 287.138 261.128 281.522 259.404 275.466C257.039 267.154 251.448 256.127 246.936 248.606L244.173 243.382L234.171 226.46C230.375 220.931 226.19 214.41 222.701 208.847C219.725 204.102 216.503 199.509 213.028 195.093C205.465 185.48 199.526 173.323 193.444 162.576C188.803 153.439 182.355 144.969 179.959 135.005C178.863 130.442 178.675 125.643 179.612 120.757C180.21 117.637 180.978 114.75 182.908 112.185C191.346 100.978 205.331 104.028 218.149 102.447C238.946 99.8791 247.356 95.0443 266.792 81.5293C268.386 80.4216 273.328 74.5795 273.044 72.6293C272.266 67.2937 268.421 63.7083 264.49 62.4934C242.268 55.6259 227.352 48.2855 210.661 35.1819C206.801 32.151 203.254 28.7051 199.016 26.1866C191.136 21.5021 181.421 20.3589 172.443 19.6689C158.085 18.5653 143.6 20.9397 130.621 26.9799C116.496 33.5527 105.323 43.2649 100.357 57.6321C100.253 57.936 100.127 58.2358 99.98 58.5227C99.4981 59.4599 99.1017 60.4391 98.8086 61.4512C96.4044 69.7432 94.7965 77.6803 95.5014 85.9842C96.0422 92.3564 97.6279 98.5993 98.5848 104.927C99.1427 108.613 99.4853 112.326 99.81 116.039C101.872 139.612 103.187 160.726 103.756 184.376V186.896C104.172 203.101 102.89 214.231 102.604 230.487C102.53 234.703 102.189 241.599 101.749 245.794C101.299 250.07 101.404 256.023 100.787 259.753C97.8671 277.374 95.2946 289.585 89.8736 307.221L88.1931 312.385C84.8947 319.551 74.1266 316.882 74.5563 309.006L74.7353 305.726C74.8812 303.051 73.6318 300.499 71.4837 298.899C32.1793 269.621 6.83496 223.537 6.83496 171.675C6.83496 83.244 80.5627 11.534 171.504 11.534C262.447 11.534 336.924 84.7161 336.174 171.675C335.43 258.088 299.48 291.096 226.622 322.202C222.872 323.803 218.542 321.327 218.087 317.275C216.59 303.881 215.915 292.704 212.29 279.696C210.48 273.2 208.424 267.709 209.907 261.374C210.103 260.54 210.558 259.794 211.154 259.18Z" fill="url(#paint1_linear_103_49)"/>
</g>
<path d="M204.789 50.8454C204.789 57.5359 199.178 62.9597 192.257 62.9597C185.337 62.9597 179.727 57.5359 179.727 50.8454C179.727 44.1547 185.337 38.731 192.257 38.731C199.178 38.731 204.789 44.1547 204.789 50.8454Z" fill="white"/>
<path d="M204.789 50.8454C204.789 57.5359 199.178 62.9597 192.257 62.9597C185.337 62.9597 179.727 57.5359 179.727 50.8454C179.727 44.1547 185.337 38.731 192.257 38.731C199.178 38.731 204.789 44.1547 204.789 50.8454Z" fill="url(#paint2_linear_103_49)"/>
<path d="M138.051 52.656V85.469C138.051 87.7599 135.812 89.4399 133.517 88.8748C124.877 86.7503 118.451 78.689 118.451 69.0714C118.451 59.4387 124.877 51.3754 133.516 49.2502C135.812 48.6852 138.051 50.3651 138.051 52.656Z" fill="white"/>
<path d="M138.051 52.656V85.469C138.051 87.7599 135.812 89.4399 133.517 88.8748C124.877 86.7503 118.451 78.689 118.451 69.0714C118.451 59.4387 124.877 51.3754 133.516 49.2502C135.812 48.6852 138.051 50.3651 138.051 52.656Z" fill="url(#paint3_linear_103_49)"/>
</g>
<defs>
<filter id="filter0_d_103_49" x="-2.01941" y="3.78642" width="358.121" height="339.937" filterUnits="userSpaceOnUse" color-interpolation-filters="sRGB">
<feFlood flood-opacity="0" result="BackgroundImageFix"/>
<feColorMatrix in="SourceAlpha" type="matrix" values="0 0 0 0 0 0 0 0 0 0 0 0 0 0 0 0 0 0 127 0" result="hardAlpha"/>
<feOffset dx="5.53398" dy="6.64078"/>
<feGaussianBlur stdDeviation="7.19417"/>
<feComposite in2="hardAlpha" operator="out"/>
<feColorMatrix type="matrix" values="0 0 0 0 0.404167 0 0 0 0 0.404167 0 0 0 0 0.404167 0 0 0 0.37 0"/>
<feBlend mode="normal" in2="BackgroundImageFix" result="effect1_dropShadow_103_49"/>
<feBlend mode="normal" in="SourceGraphic" in2="effect1_dropShadow_103_49" result="shape"/>
</filter>
<linearGradient id="paint0_linear_103_49" x1="232.388" y1="183.262" x2="464.35" y2="435.728" gradientUnits="userSpaceOnUse">
<stop stop-color="white" stop-opacity="0"/>
<stop offset="0.0001" stop-color="white" stop-opacity="0"/>
<stop offset="0.307292" stop-color="#C4C4C4"/>
</linearGradient>
<linearGradient id="paint1_linear_103_49" x1="30.7573" y1="258.874" x2="193.942" y2="42.2913" gradientUnits="userSpaceOnUse">
<stop stop-color="#C3C3C3" stop-opacity="0.75"/>
<stop offset="0.244792" stop-color="white" stop-opacity="0"/>
</linearGradient>
<linearGradient id="paint2_linear_103_49" x1="182.36" y1="42.6558" x2="190.111" y2="62.0044" gradientUnits="userSpaceOnUse">
<stop offset="0.302083" stop-color="white" stop-opacity="0"/>
<stop offset="1" stop-color="#5A5A5A" stop-opacity="0.38"/>
</linearGradient>
<linearGradient id="paint3_linear_103_49" x1="120.51" y1="55.5946" x2="138.705" y2="77.192" gradientUnits="userSpaceOnUse">
<stop stop-color="white" stop-opacity="0"/>
<stop offset="1" stop-color="#5A5A5A" stop-opacity="0.16"/>
</linearGradient>
</defs>
</svg>
